<?xml version="1.0" standalone="no"?>
<!DOCTYPE svg PUBLIC "-//W3C//DTD SVG 20010904//EN"
 "http://www.w3.org/TR/2001/REC-SVG-20010904/DTD/svg10.dtd">
<svg version="1.0" xmlns="http://www.w3.org/2000/svg"
 width="200.000000pt" height="200.000000pt" viewBox="0 0 200.000000 200.000000"
 preserveAspectRatio="xMidYMid meet">
<metadata>
Created by potrace 1.14, written by Peter Selinger 2001-2017
</metadata>
<g transform="translate(0.000000,200.000000) scale(0.100000,-0.100000)"
fill="#000000" stroke="none">
<path d="M969 1504 c-38 -41 -54 -46 -174 -50 -145 -5 -210 -27 -262 -90 -21
-24 -42 -44 -48 -44 -18 0 -53 -42 -60 -72 -8 -33 18 -92 48 -106 21 -10 16
-13 -18 -12 -14 1 -67 -33 -89 -57 -37 -40 -42 -80 -40 -321 1 -206 3 -226 21
-250 38 -51 42 -52 428 -52 387 0 390 1 429 53 20 27 21 40 21 270 0 237 -1
243 -24 280 -12 21 -39 46 -60 56 -37 19 -41 21 -63 21 -7 0 -5 5 5 11 21 12
47 61 47 87 0 11 -11 35 -24 55 -13 19 -23 37 -21 39 2 2 6 19 9 38 7 45 -8
98 -36 132 -34 39 -60 43 -89 12z m57 -90 c4 -14 2 -40 -3 -57 l-9 -32 -212
-1 c-117 -1 -212 3 -212 7 0 4 21 18 48 29 37 17 72 23 166 26 105 4 125 7
160 29 52 31 54 31 62 -1z m22 -162 c14 -5 17 -52 2 -52 -5 0 -12 1 -13 3 -10
7 -37 -29 -37 -49 0 -19 -5 -24 -25 -24 -28 0 -48 -29 -35 -50 6 -10 32 -15
85 -16 69 -1 79 -4 105 -29 l30 -29 0 -232 c0 -197 -2 -233 -16 -244 -22 -19
-716 -19 -739 0 -13 11 -15 48 -15 245 l0 232 26 27 c15 14 34 26 43 27 9 1
93 2 188 3 182 1 209 8 187 44 -10 14 -31 17 -146 20 l-136 3 -6 29 c-3 17
-12 30 -20 30 -26 0 -47 29 -36 50 9 17 28 18 277 18 148 -1 274 -3 281 -6z"/>
<path d="M1330 1280 c-42 -12 -131 -60 -136 -74 -3 -7 7 -40 22 -72 74 -164
218 -472 264 -567 58 -122 49 -118 150 -67 116 58 122 92 47 256 -220 479
-231 499 -269 515 -41 17 -47 18 -78 9z m61 -76 c28 -33 276 -579 271 -597 -2
-10 -26 -29 -52 -42 l-47 -24 -148 320 c-81 176 -146 321 -144 323 52 39 97
47 120 20z"/>
</g>
</svg>
